<svg width="25" height="26" viewBox="0 0 25 26" fill="none" xmlns="http://www.w3.org/2000/svg">
<path d="M17.1825 5.81848C16.9707 5.6067 16.9707 5.26333 17.1825 5.05154L17.2842 4.94985C17.496 4.73807 17.8394 4.73807 18.0511 4.94985L20.6099 7.50862C20.8217 7.72041 20.8217 8.06378 20.6099 8.27556L20.5082 8.37725C20.2964 8.58904 19.9531 8.58904 19.7413 8.37725L17.1825 5.81848Z" fill="#9E9FA4"/>
<path d="M7.21106 15.7583C7.00799 15.5552 7.00799 15.226 7.21106 15.0229L15.5558 6.67814C15.7589 6.47506 16.0881 6.47506 16.2912 6.67814L18.8815 9.26845C19.0846 9.47153 19.0846 9.80077 18.8815 10.0038L10.5368 18.3486C10.3337 18.5517 10.0045 18.5517 9.80138 18.3486L7.21106 15.7583Z" fill="#9E9FA4"/>
<path d="M4.42538 17.8086C4.32796 17.906 4.27318 18.0381 4.27308 18.1759L4.27148 20.2474C4.27104 20.8224 4.73728 21.2887 5.31228 21.2882L7.38379 21.2866C7.52157 21.2865 7.65367 21.2317 7.75109 21.1343L8.89153 19.9939C9.0946 19.7908 9.0946 19.4616 8.89153 19.2585L6.30121 16.6682C6.09814 16.4651 5.76889 16.4651 5.56582 16.6682L4.42538 17.8086Z" fill="#9E9FA4"/>
</svg>
