<svg width="634" height="634" viewBox="0 0 634 634" fill="none" xmlns="http://www.w3.org/2000/svg">
<path d="M592.017 400.941H384.204V280.684H592.017V400.941ZM385.472 399.673H590.749V281.952H385.472V399.673Z" fill="#E0E0E0"/>
<path d="M549.146 344.807H412.037V348.827H549.146V344.807Z" fill="#F0F0F0"/>
<path d="M558.593 359.795H412.037V364.182H558.593V359.795Z" fill="#F0F0F0"/>
<path d="M558.593 374.96H412.037V379.348H558.593V374.96Z" fill="#F0F0F0"/>
<path d="M459.955 323.036H412.037V333.471H459.955V323.036Z" fill="#F0F0F0"/>
<path d="M591.382 281.318H384.876V300.465H591.382V281.318Z" fill="#E0E0E0"/>
<path d="M575.495 297.6C575.229 297.346 577.891 294.138 581.429 290.435C584.967 286.733 588.074 283.931 588.327 284.171C588.581 284.412 585.931 287.633 582.393 291.348C578.855 295.064 575.749 297.853 575.495 297.6Z" fill="white"/>
<path d="M588.353 297.599C588.099 297.853 585.005 295.063 581.455 291.348C577.904 287.633 575.254 284.425 575.52 284.171C575.787 283.918 578.868 286.707 582.418 290.435C585.969 294.163 588.593 297.346 588.353 297.599Z" fill="white"/>
<path d="M336.299 43.1753H129.793V162.177H336.299V43.1753Z" fill="#E6E6E6"/>
<path d="M294.075 106.677H156.966V110.696H294.075V106.677Z" fill="#F0F0F0"/>
<path d="M303.521 121.665H156.966V126.052H303.521V121.665Z" fill="#F0F0F0"/>
<path d="M303.521 136.83H156.966V141.217H303.521V136.83Z" fill="#F0F0F0"/>
<path d="M204.884 84.9053H156.966V95.3409H204.884V84.9053Z" fill="#F0F0F0"/>
<path d="M336.299 43.1753H129.793V62.3221H336.299V43.1753Z" fill="#E0E0E0"/>
<path d="M319.714 59.3677C319.447 59.1267 322.11 55.906 325.648 52.2035C329.186 48.5009 332.292 45.6986 332.546 45.9522C332.799 46.2058 330.149 49.4139 326.612 53.1164C323.074 56.819 319.967 59.5959 319.714 59.3677Z" fill="white"/>
<path d="M332.546 59.3677C332.292 59.6213 329.198 56.8317 325.648 53.1165C322.098 49.4012 319.447 46.2059 319.714 45.9523C319.98 45.6987 323.061 48.4883 326.612 52.2035C330.162 55.9188 332.812 59.1268 332.546 59.3677Z" fill="white"/>
<path d="M258.089 264.238H50.3145V143.969H258.089V264.238ZM51.5825 262.97H256.821V145.237H51.5825V262.97Z" fill="#E0E0E0"/>
<path d="M215.231 208.104H78.1221V212.124H215.231V208.104Z" fill="#F0F0F0"/>
<path d="M224.678 223.092H78.1221V227.479H224.678V223.092Z" fill="#F0F0F0"/>
<path d="M224.678 238.257H78.1221V242.644H224.678V238.257Z" fill="#F0F0F0"/>
<path d="M126.04 186.333H78.1221V196.768H126.04V186.333Z" fill="#F0F0F0"/>
<path d="M257.455 144.603H50.9482V163.749H257.455V144.603Z" fill="#E0E0E0"/>
<path d="M497.88 291.792H254.044V510.091H497.88V291.792Z" fill="#E6E6E6"/>
<path d="M266.305 223.028H75.2939V421.483H266.305V223.028Z" fill="#F0F0F0"/>
<path d="M266.305 223.028H75.2939V244.648H266.305V223.028Z" fill="#E0E0E0"/>
<path d="M91.0684 233.616C91.0337 234.4 90.7694 235.157 90.3086 235.792C89.8477 236.427 89.2104 236.913 88.4759 237.189C87.7414 237.465 86.9419 237.52 86.1767 237.346C85.4115 237.172 84.7142 236.777 84.1715 236.21C83.6287 235.643 83.2643 234.929 83.1236 234.157C82.9828 233.385 83.0719 232.589 83.3797 231.867C83.6875 231.145 84.2004 230.53 84.855 230.097C85.5095 229.664 86.2768 229.433 87.0615 229.432C88.1468 229.458 89.1773 229.914 89.9281 230.698C90.6789 231.482 91.0888 232.531 91.0684 233.616Z" fill="white"/>
<path d="M107.337 233.616C107.304 234.404 107.041 235.165 106.58 235.804C106.118 236.443 105.479 236.933 104.741 237.211C104.004 237.49 103.201 237.546 102.432 237.372C101.663 237.197 100.962 236.801 100.417 236.231C99.8719 235.662 99.5061 234.945 99.3654 234.169C99.2246 233.393 99.3151 232.594 99.6255 231.869C99.9359 231.144 100.453 230.527 101.111 230.093C101.77 229.66 102.541 229.43 103.33 229.432C104.415 229.459 105.445 229.914 106.196 230.698C106.947 231.482 107.357 232.531 107.337 233.616Z" fill="white"/>
<path d="M123.605 233.616C123.573 234.404 123.309 235.165 122.848 235.804C122.387 236.443 121.747 236.933 121.01 237.211C120.273 237.49 119.469 237.546 118.701 237.372C117.932 237.197 117.231 236.801 116.686 236.231C116.14 235.662 115.775 234.945 115.634 234.169C115.493 233.393 115.584 232.594 115.894 231.869C116.204 231.144 116.721 230.527 117.38 230.093C118.038 229.66 118.81 229.43 119.598 229.432C120.683 229.459 121.714 229.914 122.465 230.698C123.216 231.482 123.626 232.531 123.605 233.616Z" fill="white"/>
<path d="M564.742 86.5789H320.905V329.604H564.742V86.5789Z" fill="#F0F0F0"/>
<path d="M564.742 86.5789H320.905V115.045H564.742V86.5789Z" fill="#E0E0E0"/>
<path d="M341.676 100.527C341.631 101.562 341.283 102.561 340.676 103.4C340.068 104.239 339.228 104.881 338.258 105.246C337.289 105.612 336.234 105.685 335.224 105.455C334.214 105.226 333.293 104.706 332.576 103.958C331.859 103.21 331.378 102.268 331.192 101.249C331.005 100.23 331.123 99.1791 331.529 98.2261C331.935 97.2732 332.612 96.4605 333.476 95.8889C334.34 95.3174 335.352 95.0122 336.388 95.0112C337.82 95.0445 339.18 95.6436 340.171 96.6773C341.162 97.7111 341.703 99.0953 341.676 100.527Z" fill="white"/>
<path d="M361.545 96.7991C362.248 97.5625 362.711 98.5159 362.876 99.5404C363.041 100.565 362.901 101.615 362.473 102.561C362.045 103.506 361.349 104.305 360.47 104.857C359.591 105.41 358.57 105.691 357.532 105.667C356.495 105.643 355.488 105.314 354.636 104.721C353.784 104.128 353.125 103.298 352.742 102.334C352.359 101.369 352.268 100.314 352.48 99.2978C352.693 98.2821 353.2 97.3514 353.937 96.6216C354.971 95.6382 356.352 95.1047 357.778 95.1379C359.204 95.1712 360.559 95.7686 361.545 96.7991Z" fill="white"/>
<path d="M384.509 100.527C384.464 101.562 384.116 102.561 383.509 103.4C382.901 104.239 382.061 104.881 381.091 105.246C380.122 105.612 379.067 105.685 378.057 105.455C377.047 105.226 376.126 104.706 375.409 103.958C374.692 103.21 374.211 102.268 374.025 101.249C373.838 100.23 373.956 99.1791 374.362 98.2261C374.768 97.2732 375.445 96.4605 376.309 95.8889C377.173 95.3174 378.185 95.0122 379.221 95.0112C380.653 95.0445 382.013 95.6436 383.004 96.6773C383.995 97.7111 384.536 99.0953 384.509 100.527Z" fill="white"/>
<path d="M512.069 574.569C512.069 574.746 424.019 574.899 315.44 574.899C206.861 574.899 118.773 574.746 118.773 574.569C118.773 574.391 206.811 574.239 315.44 574.239C424.07 574.239 512.069 574.404 512.069 574.569Z" fill="#263238"/>
<path d="M426.276 419.34C406.685 405.659 402.247 380.261 403.021 357.424C403.148 353.62 402.729 349.588 404.543 346.253C406.356 342.918 410.591 340.623 414.002 342.221C416.829 343.552 418.059 346.849 419.644 349.575C421.759 353.206 424.858 356.165 428.584 358.109C431.006 359.377 434.011 360.137 436.407 358.819C439.704 357.006 440.085 352.479 440.059 348.675C440.059 341.599 440.017 334.532 439.932 327.474C439.705 323.684 440.09 319.881 441.074 316.214C442.253 312.613 444.878 309.278 448.466 308.264C452.054 307.249 456.53 309.341 457.342 313.044C457.482 314.612 457.52 316.188 457.456 317.761C457.558 319.346 458.293 321.083 459.777 321.565C461.26 322.047 462.807 320.944 463.948 319.828C467.854 316.024 470.517 311.066 472.989 306.171C475.462 301.277 477.884 296.243 481.434 292.071C484.984 287.899 489.892 284.59 495.382 284.273C500.872 283.956 506.591 287.329 507.961 292.654C509.33 297.98 506.223 303.42 502.889 307.744C497.856 314.162 491.924 319.821 485.276 324.545C483.978 325.253 482.943 326.36 482.322 327.702C481.497 330.238 483.894 332.774 486.392 333.573C489.22 334.511 492.288 334.22 495.268 334.575C498.248 334.93 501.418 336.223 502.546 339.013C504.093 342.893 500.847 346.95 497.664 349.613C491.274 354.939 484.017 359.129 476.21 362.001C473.42 363.016 470.491 363.916 468.234 365.869C465.977 367.822 464.633 371.232 465.99 373.908C467.347 376.583 470.834 377.433 473.763 376.888C476.692 376.343 479.291 374.77 482.081 373.718C487.292 371.752 494.013 372.107 497.297 376.609C498.314 378.159 498.958 379.925 499.178 381.766C499.398 383.608 499.188 385.475 498.565 387.222C497.296 390.698 495.342 393.884 492.821 396.592C484.516 406.515 473.725 414.054 461.552 418.44C449.468 422.624 438.271 423.766 426.263 419.366" fill="#B17DDA"/>
<path d="M502.382 287.405C502.382 287.405 502.267 287.532 502.014 287.76L500.885 288.762C499.896 289.649 498.438 290.943 496.6 292.655C491.387 297.495 486.546 302.721 482.119 308.289C479.291 311.801 476.362 315.783 473.243 320.107C470.124 324.431 466.903 329.097 463.708 334.055C460.301 339.283 457.181 344.693 454.362 350.26C452.892 353.164 451.598 356.194 450.267 359.288L446.336 368.735C441.155 380.633 436.642 392.813 432.819 405.215C429.74 415.362 427.617 425.776 426.479 436.319C425.742 443.434 425.623 450.6 426.124 457.735C426.327 460.271 426.517 462.211 426.695 463.53C426.771 464.164 426.821 464.671 426.872 465.039V465.559C426.818 465.394 426.779 465.224 426.758 465.052C426.695 464.684 426.619 464.19 426.517 463.556C426.289 462.288 426.048 460.284 425.82 457.748C425.208 450.599 425.25 443.409 425.947 436.268C427.014 425.68 429.09 415.218 432.147 405.025C435.938 392.588 440.438 380.378 445.626 368.456L449.658 359.047C450.99 355.966 452.296 352.91 453.779 349.993C456.618 344.41 459.763 338.987 463.2 333.75C466.446 328.678 469.718 324.088 472.799 319.802C475.88 315.517 478.86 311.51 481.675 308.01C486.147 302.457 491.053 297.267 496.346 292.49C498.223 290.803 499.719 289.535 500.733 288.686L501.912 287.735C502.057 287.609 502.214 287.498 502.382 287.405Z" fill="#263238"/>
<path d="M453.944 349.968C453.765 349.446 453.641 348.906 453.576 348.358C453.373 347.305 453.145 345.822 452.878 343.894C452.333 340.09 451.775 334.879 451.179 329.11C450.583 323.34 449.911 318.116 449.353 314.35C449.062 312.473 448.808 310.965 448.631 309.912C448.492 309.373 448.42 308.82 448.415 308.264C448.633 308.772 448.791 309.304 448.884 309.849C449.163 310.888 449.48 312.385 449.835 314.274C450.558 318.078 451.268 323.251 451.864 329.033C452.46 334.816 452.967 339.888 453.36 343.831C453.55 345.606 453.715 347.115 453.842 348.32C453.941 348.863 453.975 349.417 453.944 349.968Z" fill="#263238"/>
<path d="M502.736 340.864C502.119 340.998 501.491 341.074 500.86 341.092C499.592 341.206 497.791 341.358 495.559 341.612C491.096 342.094 484.959 342.981 478.226 344.249C471.493 345.517 465.444 346.95 461.095 348.053C458.927 348.611 457.177 349.118 456.023 349.461C455.407 349.68 454.769 349.833 454.121 349.917C454.707 349.623 455.318 349.381 455.947 349.194C457.139 348.776 458.863 348.193 461.019 347.571C465.343 346.303 471.391 344.794 478.15 343.501C483.875 342.406 489.651 341.602 495.458 341.092C497.702 340.902 499.515 340.826 500.783 340.8C501.435 340.756 502.089 340.777 502.736 340.864Z" fill="#263238"/>
<path d="M432.768 404.137C432.633 403.953 432.522 403.753 432.439 403.541L431.602 401.778C430.879 400.244 429.903 397.975 428.736 395.198C426.377 389.618 423.372 381.807 420.177 373.134C416.982 364.461 414.04 356.65 411.808 351.008C410.718 348.269 409.817 346.025 409.145 344.351L408.435 342.538C408.337 342.328 408.269 342.106 408.232 341.878C408.368 342.062 408.478 342.262 408.562 342.474L409.399 344.237C410.109 345.771 411.098 348.041 412.265 350.818C414.623 356.397 417.628 364.208 420.824 372.881C424.019 381.554 426.961 389.365 429.192 395.007C430.283 397.746 431.183 399.991 431.843 401.664C432.134 402.387 432.375 402.932 432.565 403.478C432.664 403.687 432.732 403.909 432.768 404.137Z" fill="#263238"/>
<path d="M497.538 383.253C497.335 383.37 497.118 383.459 496.891 383.519L495.015 384.153L488.079 386.398C482.221 388.3 474.131 391.013 465.255 394.006C456.379 396.998 448.251 399.661 442.355 401.436C439.413 402.337 437.016 403.021 435.355 403.478L433.441 403.972C433.218 404.043 432.988 404.09 432.756 404.112C432.959 403.995 433.176 403.906 433.403 403.845L435.279 403.211L442.215 400.967C448.073 399.065 456.163 396.352 465.039 393.359C473.915 390.367 482.03 387.704 487.927 385.929C490.881 385.028 493.265 384.344 494.939 383.887L496.853 383.393C497.076 383.322 497.305 383.275 497.538 383.253Z" fill="#263238"/>
<path d="M471.113 75.6741L464.583 78.0073L461.781 69.4736C456.633 53.7377 440.225 45.3816 425.148 50.6945C410.072 56.0075 402.045 73.2649 407.193 89.0008L409.995 97.5345L403.44 99.8803C400.94 100.85 398.91 102.745 397.772 105.173C396.634 107.601 396.475 110.374 397.328 112.915L415.499 168.441C415.876 169.699 416.502 170.869 417.34 171.88C418.178 172.892 419.211 173.725 420.377 174.329C421.544 174.933 422.82 175.297 424.129 175.399C425.439 175.5 426.756 175.338 428.001 174.92L495.674 150.714C498.207 149.746 500.266 147.834 501.417 145.379C502.569 142.925 502.724 140.119 501.849 137.553L483.666 82.0268C483.279 80.7721 482.644 79.6081 481.797 78.6045C480.95 77.6008 479.91 76.778 478.739 76.1851C477.567 75.5922 476.288 75.2414 474.978 75.1536C473.668 75.0658 472.353 75.2429 471.113 75.6741ZM419.531 84.5501C418.143 80.4586 418.392 75.9886 420.226 72.0766C422.06 68.1647 425.337 65.1144 429.371 63.5647C431.362 62.8834 433.47 62.6101 435.57 62.7613C437.669 62.9125 439.717 63.4851 441.59 64.4448C443.463 65.4046 445.124 66.7318 446.473 68.3474C447.823 69.963 448.833 71.8338 449.443 73.8482L452.233 82.3819L422.32 93.0838L419.531 84.5501ZM457.571 133.825L462.212 148.001C462.297 148.285 462.269 148.591 462.135 148.856C462 149.12 461.769 149.323 461.489 149.421L454.984 151.741C454.725 151.813 454.449 151.782 454.212 151.654C453.976 151.527 453.798 151.313 453.716 151.057L449.037 136.944C446.457 136.803 443.982 135.878 441.942 134.292C439.903 132.705 438.397 130.534 437.625 128.068C436.522 124.808 436.724 121.247 438.187 118.132C439.65 115.017 442.261 112.589 445.474 111.356C447.061 110.814 448.74 110.597 450.412 110.717C452.084 110.838 453.715 111.294 455.207 112.059C456.699 112.823 458.022 113.88 459.097 115.166C460.172 116.453 460.977 117.943 461.464 119.547C462.279 122.052 462.347 124.74 461.658 127.283C460.969 129.826 459.553 132.112 457.584 133.863L457.571 133.825Z" fill="#B17DDA"/>
<path d="M464.291 77.8551C464.291 78.0326 452.181 82.5847 437.118 87.9991C422.054 93.4135 409.767 97.7627 409.703 97.6359C409.64 97.5091 421.813 92.9189 436.889 87.4919C451.966 82.0649 464.227 77.6903 464.291 77.8551Z" fill="#263238"/>
<path d="M478.67 80.1882C478.726 80.2983 478.773 80.4128 478.81 80.5306C478.911 80.7842 479.025 81.1139 479.177 81.5196C479.507 82.4453 479.963 83.726 480.534 85.3236L485.403 99.4999C487.432 105.51 489.854 112.636 492.542 120.549C493.81 124.518 495.306 128.651 496.701 133C497.448 135.242 497.77 137.602 497.652 139.962C497.545 141.189 497.195 142.382 496.625 143.474C496.016 144.562 495.202 145.522 494.228 146.302C492.269 147.732 490.095 148.84 487.787 149.586L481.257 151.932L468.894 156.357L447.959 163.813L433.821 168.783L430.017 170.051L429.003 170.381C428.894 170.429 428.778 170.459 428.66 170.47C428.66 170.47 428.762 170.47 428.977 170.318L429.966 169.925L433.77 168.492L447.832 163.318L468.729 155.71L481.067 151.247L487.597 148.888C489.839 148.173 491.95 147.098 493.848 145.706C494.754 144.982 495.511 144.091 496.08 143.081C496.617 142.071 496.94 140.962 497.031 139.822C497.147 137.549 496.838 135.274 496.118 133.115C494.748 128.803 493.303 124.632 491.997 120.663C489.359 112.738 486.925 105.586 484.997 99.576C483.07 93.5656 481.447 88.7346 480.331 85.3363C479.799 83.6752 479.393 82.3819 479.063 81.4436L478.759 80.4292C478.721 80.3523 478.691 80.2715 478.67 80.1882Z" fill="#263238"/>
<path d="M442.963 62.7024C442.963 62.7024 442.291 62.3728 441.049 61.8656C439.277 61.185 437.404 60.8078 435.507 60.7497C432.696 60.6533 429.899 61.1817 427.316 62.2967C424.176 63.6851 421.491 65.9309 419.569 68.7762C417.634 71.6133 416.596 74.9662 416.589 78.4003C416.615 81.2149 417.042 84.0114 417.857 86.7057C418.516 89.0134 419.201 90.8521 419.657 92.1327C419.927 92.7832 420.147 93.4529 420.317 94.1362C419.957 93.528 419.655 92.8869 419.416 92.2215C418.897 90.9535 418.149 89.1529 417.413 86.8325C416.51 84.1099 416.019 81.2679 415.955 78.4003C415.921 74.8365 416.983 71.3484 418.998 68.4084C420.987 65.4592 423.782 63.144 427.05 61.7388C429.713 60.6176 432.598 60.1231 435.482 60.2932C437.42 60.392 439.323 60.8432 441.099 61.6246C441.574 61.8437 442.032 62.098 442.469 62.3854C442.649 62.4647 442.816 62.5716 442.963 62.7024Z" fill="#263238"/>
<path d="M443.547 112.319C443.749 112.197 443.961 112.091 444.181 112.002C444.816 111.716 445.473 111.483 446.146 111.305C447.215 110.989 448.318 110.802 449.431 110.747C450.944 110.666 452.459 110.894 453.881 111.419C457.127 112.56 460.107 115.87 461.578 120.295C462.283 122.67 462.283 125.199 461.578 127.573C460.796 130.151 459.394 132.498 457.495 134.408L457.571 134.066C459.258 138.694 461.096 143.715 462.998 148.952L463.112 149.269L462.795 149.383L459.892 150.347L453.552 152.464L453.235 152.566L453.133 152.249C451.396 146.999 449.494 142.105 448.061 137.299L448.34 137.514C445.861 137.309 443.498 136.378 441.544 134.839C439.776 133.477 438.326 131.746 437.296 129.767C436.366 128.012 435.903 126.047 435.952 124.061C436.01 122.031 436.517 120.04 437.436 118.229C438.354 116.419 439.662 114.833 441.265 113.587C441.924 113.052 442.665 112.624 443.458 112.319C442.742 112.744 442.048 113.206 441.379 113.701C439.618 115.191 438.269 117.108 437.461 119.268C436.767 120.897 436.442 122.659 436.51 124.428C436.578 126.198 437.037 127.93 437.854 129.501C438.867 131.405 440.281 133.066 442 134.37C443.864 135.833 446.118 136.715 448.48 136.906H448.695L448.758 137.096C450.153 141.813 452.068 146.746 453.83 152.02L453.412 151.818L459.752 149.7L462.643 148.724L462.44 149.155C460.551 143.918 458.725 138.884 457.051 134.256V134.066L457.203 133.913C459.047 132.082 460.421 129.833 461.21 127.358C461.883 125.086 461.883 122.668 461.21 120.396C459.828 116.136 456.975 112.903 453.881 111.761C452.512 111.233 451.05 110.987 449.583 111.039C448.487 111.064 447.398 111.213 446.337 111.482C444.447 111.952 443.56 112.383 443.547 112.319Z" fill="#263238"/>
<path d="M404.352 478.442L277.692 477.858C270.377 477.818 263.378 474.876 258.23 469.679C253.083 464.482 250.209 457.454 250.239 450.14L251.584 132.62C251.599 128.996 252.328 125.411 253.729 122.069C255.13 118.727 257.177 115.694 259.751 113.143C262.325 110.592 265.377 108.574 268.732 107.203C272.086 105.833 275.678 105.137 279.302 105.155L405.95 105.738C413.264 105.775 420.265 108.714 425.415 113.909C430.564 119.103 433.442 126.13 433.415 133.444L432.071 450.951C432.056 454.577 431.327 458.163 429.926 461.507C428.525 464.85 426.479 467.885 423.905 470.437C421.331 472.99 418.28 475.011 414.925 476.384C411.57 477.758 407.977 478.457 404.352 478.442Z" fill="#455A64"/>
<path d="M405.76 116.656H381.212C380.411 116.671 379.62 116.843 378.886 117.163C378.152 117.484 377.488 117.946 376.932 118.523C376.376 119.1 375.94 119.78 375.647 120.526C375.354 121.272 375.212 122.068 375.227 122.869V127.32C375.242 128.12 375.099 128.916 374.806 129.661C374.513 130.406 374.076 131.086 373.521 131.662C372.965 132.238 372.3 132.698 371.566 133.017C370.832 133.336 370.042 133.507 369.242 133.52L321.387 133.305C319.768 133.261 318.233 132.578 317.118 131.403C316.003 130.229 315.4 128.66 315.44 127.041V122.59C315.481 120.973 314.88 119.406 313.767 118.232C312.655 117.058 311.123 116.373 309.506 116.326H300.871L279.379 116.225C274.266 116.194 269.351 118.191 265.707 121.777C262.064 125.363 259.99 130.247 259.94 135.359L258.672 445.283C258.66 447.819 259.148 450.333 260.108 452.68C261.068 455.028 262.48 457.163 264.266 458.965C266.051 460.766 268.173 462.199 270.511 463.18C272.85 464.161 275.359 464.672 277.895 464.684L404.289 465.267C406.827 465.279 409.342 464.79 411.691 463.83C414.04 462.87 416.177 461.456 417.98 459.67C419.782 457.884 421.215 455.76 422.197 453.42C423.179 451.08 423.691 448.569 423.702 446.032L424.97 136.107C425.001 130.981 422.994 126.052 419.392 122.405C415.79 118.757 410.886 116.689 405.76 116.656Z" fill="white"/>
<path d="M388.756 423.918L294.771 423.512C293.795 423.512 293.009 422.447 293.022 421.153L293.123 396.567C293.123 395.299 293.922 394.208 294.898 394.208L388.882 394.64C389.423 394.733 389.908 395.032 390.234 395.474C390.56 395.916 390.702 396.466 390.632 397.011L390.544 421.572C390.544 422.878 389.732 423.93 388.756 423.918Z" fill="#B17DDA"/>
<path d="M325.277 405.907C325.233 405.537 325.056 405.25 324.744 405.046C324.433 404.842 324.051 404.739 323.598 404.739C323.267 404.739 322.978 404.793 322.73 404.9C322.484 405.007 322.292 405.154 322.153 405.342C322.017 405.529 321.949 405.742 321.949 405.98C321.949 406.18 321.996 406.351 322.091 406.495C322.188 406.636 322.312 406.754 322.463 406.849C322.614 406.941 322.772 407.018 322.938 407.079C323.103 407.137 323.255 407.185 323.394 407.221L324.153 407.426C324.348 407.477 324.564 407.547 324.803 407.637C325.044 407.727 325.274 407.85 325.492 408.006C325.714 408.159 325.896 408.356 326.04 408.597C326.184 408.838 326.255 409.134 326.255 409.484C326.255 409.888 326.149 410.253 325.938 410.579C325.729 410.905 325.422 411.164 325.018 411.356C324.617 411.549 324.129 411.645 323.554 411.645C323.019 411.645 322.556 411.558 322.164 411.386C321.775 411.213 321.468 410.972 321.244 410.663C321.023 410.354 320.897 409.995 320.868 409.586H321.803C321.827 409.869 321.922 410.102 322.087 410.287C322.255 410.47 322.467 410.606 322.722 410.696C322.98 410.783 323.258 410.827 323.554 410.827C323.9 410.827 324.21 410.771 324.485 410.659C324.76 410.545 324.978 410.387 325.138 410.185C325.299 409.98 325.379 409.742 325.379 409.47C325.379 409.221 325.31 409.019 325.171 408.864C325.033 408.708 324.85 408.581 324.624 408.484C324.398 408.387 324.153 408.302 323.89 408.229L322.97 407.966C322.386 407.798 321.924 407.558 321.584 407.247C321.243 406.935 321.073 406.528 321.073 406.024C321.073 405.606 321.186 405.241 321.412 404.929C321.641 404.615 321.947 404.372 322.332 404.199C322.719 404.024 323.151 403.936 323.627 403.936C324.109 403.936 324.537 404.023 324.912 404.196C325.287 404.366 325.584 404.599 325.803 404.896C326.024 405.193 326.141 405.53 326.153 405.907H325.277ZM328.649 404.039V411.513H327.744V404.039H328.649ZM336.391 404.039V411.513H335.515L331.442 405.644H331.369V411.513H330.464V404.039H331.34L335.427 409.922H335.5V404.039H336.391ZM343.312 406.374C343.232 406.129 343.126 405.908 342.994 405.714C342.865 405.517 342.711 405.349 342.531 405.21C342.353 405.071 342.151 404.966 341.925 404.893C341.699 404.82 341.451 404.783 341.18 404.783C340.738 404.783 340.335 404.897 339.972 405.126C339.61 405.355 339.321 405.692 339.107 406.137C338.893 406.582 338.786 407.129 338.786 407.776C338.786 408.423 338.894 408.969 339.111 409.415C339.328 409.86 339.621 410.197 339.991 410.426C340.36 410.654 340.777 410.769 341.239 410.769C341.667 410.769 342.044 410.678 342.37 410.495C342.699 410.31 342.954 410.05 343.137 409.714C343.322 409.376 343.414 408.978 343.414 408.521L343.692 408.579H341.443V407.776H344.29V408.579C344.29 409.195 344.159 409.73 343.896 410.185C343.636 410.64 343.275 410.993 342.816 411.243C342.358 411.492 341.833 411.616 341.239 411.616C340.577 411.616 339.995 411.46 339.494 411.148C338.995 410.837 338.606 410.394 338.326 409.82C338.049 409.246 337.91 408.564 337.91 407.776C337.91 407.185 337.989 406.653 338.147 406.181C338.308 405.707 338.534 405.303 338.826 404.969C339.118 404.636 339.464 404.38 339.863 404.203C340.262 404.025 340.701 403.936 341.18 403.936C341.575 403.936 341.942 403.996 342.283 404.115C342.626 404.232 342.931 404.399 343.199 404.615C343.469 404.829 343.694 405.086 343.874 405.385C344.054 405.682 344.178 406.012 344.246 406.374H343.312ZM353.636 404.039H354.542V408.988C354.542 409.499 354.421 409.955 354.18 410.356C353.942 410.755 353.605 411.071 353.169 411.302C352.734 411.53 352.223 411.645 351.636 411.645C351.05 411.645 350.539 411.53 350.103 411.302C349.668 411.071 349.33 410.755 349.089 410.356C348.85 409.955 348.731 409.499 348.731 408.988V404.039H349.636V408.915C349.636 409.28 349.716 409.605 349.877 409.889C350.038 410.172 350.266 410.394 350.563 410.557C350.863 410.718 351.22 410.798 351.636 410.798C352.052 410.798 352.41 410.718 352.709 410.557C353.009 410.394 353.237 410.172 353.396 409.889C353.556 409.605 353.636 409.28 353.636 408.915V404.039ZM356.349 411.513V404.039H358.875C359.461 404.039 359.941 404.144 360.313 404.356C360.688 404.565 360.965 404.849 361.145 405.207C361.325 405.564 361.415 405.963 361.415 406.404C361.415 406.844 361.325 407.244 361.145 407.604C360.967 407.965 360.692 408.252 360.32 408.466C359.948 408.678 359.471 408.783 358.889 408.783H357.079V407.98H358.86C359.262 407.98 359.584 407.911 359.827 407.772C360.071 407.634 360.247 407.446 360.357 407.21C360.469 406.972 360.525 406.703 360.525 406.404C360.525 406.104 360.469 405.837 360.357 405.601C360.247 405.365 360.07 405.18 359.824 405.046C359.578 404.91 359.252 404.842 358.846 404.842H357.254V411.513H356.349Z" fill="#E8E8E3"/>
<path d="M313.518 207.762L280.905 207.614L280.878 213.599L313.491 213.747L313.518 207.762Z" fill="#B17DDA"/>
<path opacity="0.1" d="M313.518 207.762L280.905 207.614L280.878 213.599L313.491 213.747L313.518 207.762Z" fill="black"/>
<path d="M409.12 244.508C409.376 244.482 409.627 244.423 409.868 244.331C410.219 244.194 410.524 243.96 410.748 243.657C410.972 243.355 411.107 242.995 411.136 242.619C411.136 240.603 411.136 237.661 411.136 233.883C411.136 231.993 411.136 229.876 411.136 227.543C411.136 226.972 411.136 226.376 411.136 225.78C411.218 225.202 411.093 224.613 410.781 224.119C410.606 223.882 410.379 223.689 410.117 223.555C409.855 223.421 409.566 223.349 409.272 223.345H407.294H388.971L282.916 222.952C282.644 222.948 282.376 223.009 282.133 223.13C281.89 223.252 281.68 223.43 281.521 223.65C281.215 224.146 281.098 224.736 281.191 225.311C281.191 226.579 281.191 227.847 281.191 229.115C281.191 231.651 281.191 234.187 281.191 236.723C281.191 237.991 281.191 239.259 281.191 240.527C281.139 241.117 281.139 241.711 281.191 242.302C281.258 242.555 281.382 242.79 281.553 242.988C281.724 243.185 281.939 243.341 282.18 243.443C282.43 243.543 282.698 243.59 282.966 243.583H289.42L317.583 243.735L365.26 244.027L397.403 244.28L406.14 244.382H408.41C408.929 244.382 409.183 244.382 409.183 244.382H408.41H406.14H397.403H365.26L317.583 244.229L289.42 244.115H282.966C282.611 244.13 282.257 244.069 281.927 243.938C281.593 243.795 281.296 243.578 281.058 243.304C280.821 243.029 280.65 242.704 280.557 242.353C280.484 242.02 280.458 241.678 280.481 241.338V240.4C280.481 239.132 280.481 237.864 280.481 236.596C280.481 234.06 280.481 231.524 280.481 228.988C280.481 227.72 280.481 226.452 280.481 225.184C280.457 224.846 280.457 224.507 280.481 224.17C280.529 223.797 280.673 223.443 280.899 223.143C281.118 222.836 281.408 222.588 281.743 222.418C282.079 222.248 282.451 222.161 282.827 222.166L388.882 222.749L407.205 222.876H409.183C409.532 222.877 409.875 222.961 410.184 223.122C410.493 223.283 410.759 223.516 410.958 223.802C411.316 224.353 411.46 225.016 411.364 225.666C411.364 226.262 411.364 226.858 411.364 227.428C411.364 229.736 411.364 231.854 411.364 233.768C411.364 237.572 411.275 240.489 411.25 242.518C411.219 242.908 411.077 243.281 410.841 243.593C410.605 243.905 410.285 244.144 409.918 244.28C409.679 244.429 409.402 244.508 409.12 244.508Z" fill="#E0E0E0"/>
<path d="M350.348 229.318H290.701V234.91H350.348V229.318Z" fill="#B17DDA"/>
<path opacity="0.2" d="M350.348 229.318H290.701V234.91H350.348V229.318Z" fill="white"/>
<path d="M313.295 262.36L280.683 262.212L280.655 268.197L313.268 268.345L313.295 262.36Z" fill="#B17DDA"/>
<path opacity="0.1" d="M313.295 262.36L280.683 262.212L280.655 268.197L313.268 268.345L313.295 262.36Z" fill="black"/>
<path d="M408.296 299.108C408.552 299.077 408.806 299.03 409.057 298.969C409.411 298.856 409.737 298.669 410.012 298.42C410.288 298.17 410.507 297.865 410.654 297.523C410.854 297.012 410.932 296.46 410.883 295.913C410.883 295.304 410.883 294.645 410.883 293.91C410.883 292.439 410.883 290.765 410.883 288.838V280.786C410.943 280.203 410.814 279.616 410.515 279.112C410.202 278.595 409.71 278.212 409.133 278.034C408.501 277.922 407.858 277.888 407.218 277.933H388.972L283.284 277.54C282.715 277.541 282.167 277.749 281.74 278.124C281.313 278.5 281.037 279.018 280.963 279.581C280.963 280.786 280.963 282.117 280.963 283.385C280.963 285.921 280.963 288.457 280.963 290.993C280.963 292.261 280.963 293.529 280.963 294.797C280.916 295.39 280.942 295.986 281.039 296.572C281.198 297.087 281.524 297.533 281.965 297.84C282.434 298.138 282.984 298.28 283.537 298.246H285.3H288.964L317.025 298.386L364.537 298.677L396.567 298.931L405.278 299.032H407.548H408.309H407.548H405.278H396.567H364.537L317 298.982L288.939 298.88H283.423C282.737 298.921 282.057 298.738 281.483 298.36C280.906 297.961 280.485 297.374 280.291 296.699C280.178 296.055 280.144 295.399 280.19 294.747C280.19 293.479 280.19 292.211 280.19 290.943C280.19 288.407 280.19 285.871 280.19 283.335C280.19 282.067 280.19 280.799 280.19 279.531C280.282 278.805 280.636 278.139 281.185 277.656C281.733 277.173 282.439 276.906 283.17 276.906L388.858 277.489L407.104 277.629C407.784 277.587 408.465 277.634 409.133 277.768C409.792 277.983 410.347 278.435 410.693 279.036C411.021 279.594 411.163 280.243 411.098 280.887C411.098 281.483 411.098 282.067 411.098 282.65C411.098 284.945 411.098 287.05 411.098 288.99C411.098 290.93 411.098 292.566 411.098 294.062C411.098 294.785 411.098 295.457 411.098 296.078C411.144 296.645 411.053 297.215 410.832 297.739C410.667 298.089 410.429 298.399 410.134 298.649C409.838 298.898 409.493 299.081 409.12 299.185C408.843 299.207 408.564 299.182 408.296 299.108Z" fill="#E0E0E0"/>
<path d="M313.05 319.33L280.438 319.182L280.41 325.167L313.023 325.315L313.05 319.33Z" fill="#B17DDA"/>
<path opacity="0.1" d="M313.05 319.33L280.438 319.182L280.41 325.167L313.023 325.315L313.05 319.33Z" fill="black"/>
<path d="M408.042 356.054C408.299 356.024 408.553 355.977 408.803 355.915C409.156 355.803 409.48 355.617 409.756 355.37C410.031 355.123 410.251 354.82 410.401 354.482C410.599 353.97 410.678 353.419 410.629 352.872C410.629 352.25 410.629 351.604 410.629 350.855C410.629 349.397 410.629 347.711 410.629 345.783V337.732C410.689 337.149 410.561 336.562 410.261 336.058C409.941 335.551 409.451 335.173 408.879 334.993C408.248 334.876 407.605 334.837 406.964 334.879H388.718L283.03 334.486C282.462 334.487 281.913 334.695 281.486 335.07C281.059 335.446 280.783 335.963 280.71 336.527C280.71 337.795 280.71 339.063 280.71 340.331C280.71 342.867 280.71 345.403 280.71 347.939C280.71 349.207 280.71 350.475 280.71 351.743C280.662 352.331 280.688 352.923 280.786 353.506C280.938 354.023 281.265 354.471 281.711 354.774C282.177 355.078 282.729 355.22 283.284 355.179H288.799L316.86 355.332L364.372 355.623L396.402 355.877L405.113 355.978H407.383C407.89 355.978 408.144 355.978 408.144 355.978C408.144 355.978 407.89 355.978 407.383 355.978H405.113H396.402H364.372L316.86 355.839L288.799 355.725H283.284C282.597 355.771 281.915 355.588 281.344 355.205C280.767 354.805 280.346 354.218 280.152 353.544C280.038 352.899 280.004 352.244 280.05 351.591C280.05 350.323 280.05 349.055 280.05 347.787C280.05 345.251 280.05 342.715 280.05 340.179C280.05 338.911 280.05 337.643 280.05 336.312C280.14 335.588 280.491 334.921 281.037 334.438C281.584 333.955 282.288 333.687 283.017 333.687L388.705 334.27L406.952 334.41C407.631 334.368 408.313 334.415 408.981 334.549C409.639 334.764 410.195 335.216 410.54 335.817C410.868 336.375 411.01 337.024 410.946 337.668C410.946 338.264 410.946 338.86 410.946 339.431C410.946 341.726 410.946 343.831 410.946 345.771C410.946 347.711 410.946 349.347 410.946 350.843C410.946 351.566 410.946 352.238 410.946 352.859C410.995 353.426 410.903 353.996 410.68 354.52C410.515 354.87 410.277 355.18 409.982 355.43C409.686 355.679 409.34 355.862 408.968 355.966C408.671 356.067 408.353 356.098 408.042 356.054Z" fill="#E0E0E0"/>
<path d="M349.075 285.499L289.429 285.228L289.403 290.82L349.049 291.091L349.075 285.499Z" fill="#B17DDA"/>
<path opacity="0.2" d="M349.075 285.499L289.429 285.228L289.403 290.82L349.049 291.091L349.075 285.499Z" fill="white"/>
<path d="M294.823 345.708C294.785 346.218 294.599 346.705 294.287 347.111C293.975 347.516 293.55 347.82 293.067 347.987C292.583 348.153 292.061 348.173 291.566 348.046C291.071 347.918 290.624 347.648 290.281 347.269C289.938 346.89 289.713 346.418 289.636 345.913C289.558 345.407 289.631 344.89 289.844 344.425C290.058 343.961 290.403 343.569 290.837 343.299C291.271 343.029 291.775 342.892 292.287 342.905C292.993 342.945 293.655 343.261 294.13 343.785C294.605 344.31 294.854 345.001 294.823 345.708Z" fill="#B17DDA"/>
<path d="M302.899 345.745C302.924 346.103 302.876 346.462 302.756 346.799C302.636 347.137 302.448 347.447 302.204 347.709C301.96 347.971 301.664 348.18 301.335 348.323C301.007 348.466 300.652 348.539 300.294 348.539C299.935 348.539 299.581 348.466 299.252 348.323C298.924 348.18 298.628 347.971 298.383 347.709C298.139 347.447 297.951 347.137 297.832 346.799C297.712 346.462 297.663 346.103 297.688 345.745C297.663 345.388 297.712 345.029 297.832 344.691C297.951 344.354 298.139 344.044 298.383 343.782C298.628 343.52 298.924 343.311 299.252 343.168C299.581 343.025 299.935 342.951 300.294 342.951C300.652 342.951 301.007 343.025 301.335 343.168C301.664 343.311 301.96 343.52 302.204 343.782C302.448 344.044 302.636 344.354 302.756 344.691C302.876 345.029 302.924 345.388 302.899 345.745Z" fill="#B17DDA"/>
<path d="M310.99 345.783C310.952 346.293 310.766 346.781 310.454 347.186C310.142 347.592 309.717 347.896 309.234 348.062C308.75 348.229 308.228 348.249 307.733 348.122C307.238 347.994 306.791 347.724 306.448 347.345C306.105 346.966 305.88 346.494 305.803 345.989C305.725 345.483 305.798 344.966 306.011 344.501C306.225 344.037 306.57 343.645 307.004 343.375C307.438 343.104 307.942 342.968 308.454 342.981C309.159 343.024 309.819 343.341 310.293 343.865C310.768 344.389 311.017 345.077 310.99 345.783Z" fill="#B17DDA"/>
<path d="M319.067 345.822C319.029 346.332 318.843 346.819 318.531 347.225C318.219 347.63 317.795 347.934 317.311 348.101C316.827 348.267 316.306 348.287 315.81 348.16C315.315 348.032 314.868 347.762 314.525 347.383C314.182 347.004 313.957 346.532 313.88 346.027C313.802 345.521 313.875 345.004 314.088 344.539C314.302 344.075 314.647 343.683 315.081 343.413C315.516 343.143 316.02 343.006 316.531 343.019C317.236 343.062 317.896 343.379 318.371 343.903C318.845 344.427 319.095 345.116 319.067 345.822Z" fill="#B17DDA"/>
<path d="M327.144 345.847C327.109 346.358 326.925 346.847 326.614 347.254C326.303 347.661 325.88 347.967 325.396 348.136C324.912 348.304 324.39 348.326 323.894 348.2C323.398 348.074 322.949 347.804 322.605 347.426C322.261 347.047 322.035 346.575 321.957 346.069C321.878 345.563 321.95 345.045 322.163 344.58C322.377 344.114 322.722 343.722 323.157 343.451C323.591 343.181 324.096 343.044 324.608 343.057C325.311 343.1 325.969 343.415 326.443 343.936C326.917 344.458 327.168 345.143 327.144 345.847Z" fill="#B17DDA"/>
<path d="M335.234 345.885C335.199 346.393 335.017 346.88 334.709 347.286C334.401 347.692 333.981 347.999 333.501 348.169C333.021 348.339 332.502 348.366 332.007 348.245C331.513 348.124 331.064 347.861 330.717 347.488C330.369 347.115 330.139 346.649 330.053 346.147C329.967 345.645 330.03 345.129 330.234 344.662C330.438 344.195 330.773 343.798 331.2 343.52C331.626 343.242 332.125 343.094 332.634 343.095C333.349 343.122 334.023 343.43 334.51 343.953C334.998 344.476 335.258 345.171 335.234 345.885Z" fill="#B17DDA"/>
<path d="M343.311 345.923C343.336 346.28 343.287 346.639 343.167 346.977C343.047 347.315 342.859 347.624 342.615 347.886C342.371 348.148 342.075 348.357 341.746 348.5C341.418 348.643 341.063 348.717 340.705 348.717C340.346 348.717 339.992 348.643 339.663 348.5C339.335 348.357 339.039 348.148 338.795 347.886C338.55 347.624 338.362 347.315 338.243 346.977C338.123 346.639 338.074 346.28 338.099 345.923C338.074 345.565 338.123 345.207 338.243 344.869C338.362 344.531 338.55 344.221 338.795 343.959C339.039 343.697 339.335 343.488 339.663 343.346C339.992 343.203 340.346 343.129 340.705 343.129C341.063 343.129 341.418 343.203 341.746 343.346C342.075 343.488 342.371 343.697 342.615 343.959C342.859 344.221 343.047 344.531 343.167 344.869C343.287 345.207 343.336 345.565 343.311 345.923Z" fill="#B17DDA"/>
<path d="M351.388 345.961C351.353 346.469 351.171 346.956 350.863 347.362C350.555 347.768 350.136 348.075 349.656 348.245C349.176 348.415 348.656 348.442 348.162 348.321C347.667 348.2 347.218 347.937 346.871 347.564C346.524 347.192 346.293 346.726 346.207 346.223C346.121 345.721 346.184 345.205 346.388 344.738C346.592 344.272 346.928 343.875 347.354 343.596C347.781 343.318 348.279 343.17 348.789 343.171C349.503 343.198 350.177 343.506 350.665 344.029C351.152 344.552 351.412 345.247 351.388 345.961Z" fill="#B17DDA"/>
<path d="M359.465 345.999C359.43 346.51 359.246 346.999 358.935 347.406C358.624 347.813 358.201 348.119 357.717 348.288C357.234 348.456 356.711 348.478 356.215 348.352C355.719 348.226 355.271 347.956 354.926 347.578C354.582 347.199 354.356 346.727 354.278 346.221C354.199 345.715 354.271 345.197 354.485 344.732C354.698 344.267 355.044 343.874 355.478 343.603C355.913 343.333 356.417 343.196 356.929 343.209C357.632 343.252 358.291 343.567 358.764 344.089C359.238 344.61 359.49 345.295 359.465 345.999Z" fill="#B17DDA"/>
<g opacity="0.2">
<path d="M294.823 345.708C294.785 346.218 294.599 346.705 294.287 347.111C293.975 347.516 293.55 347.82 293.067 347.987C292.583 348.153 292.061 348.173 291.566 348.046C291.071 347.918 290.624 347.648 290.281 347.269C289.938 346.89 289.713 346.418 289.636 345.913C289.558 345.407 289.631 344.89 289.844 344.425C290.058 343.961 290.403 343.569 290.837 343.299C291.271 343.029 291.775 342.892 292.287 342.905C292.993 342.945 293.655 343.261 294.13 343.785C294.605 344.31 294.854 345.001 294.823 345.708Z" fill="white"/>
<path d="M302.899 345.746C302.924 346.103 302.876 346.462 302.756 346.8C302.636 347.137 302.448 347.447 302.204 347.709C301.96 347.971 301.664 348.18 301.335 348.323C301.007 348.466 300.652 348.54 300.294 348.54C299.935 348.54 299.581 348.466 299.252 348.323C298.924 348.18 298.628 347.971 298.383 347.709C298.139 347.447 297.951 347.137 297.832 346.8C297.712 346.462 297.663 346.103 297.688 345.746C297.663 345.388 297.712 345.029 297.832 344.692C297.951 344.354 298.139 344.044 298.383 343.782C298.628 343.52 298.924 343.311 299.252 343.168C299.581 343.025 299.935 342.952 300.294 342.952C300.652 342.952 301.007 343.025 301.335 343.168C301.664 343.311 301.96 343.52 302.204 343.782C302.448 344.044 302.636 344.354 302.756 344.692C302.876 345.029 302.924 345.388 302.899 345.746Z" fill="white"/>
<path d="M310.99 345.784C310.952 346.294 310.766 346.782 310.454 347.187C310.142 347.592 309.717 347.896 309.234 348.063C308.75 348.229 308.228 348.25 307.733 348.122C307.238 347.995 306.791 347.724 306.448 347.345C306.105 346.966 305.88 346.494 305.803 345.989C305.725 345.483 305.798 344.966 306.011 344.502C306.225 344.037 306.57 343.645 307.004 343.375C307.438 343.105 307.942 342.968 308.454 342.981C309.159 343.024 309.819 343.341 310.293 343.865C310.768 344.389 311.017 345.078 310.99 345.784Z" fill="white"/>
<path d="M319.067 345.822C319.029 346.332 318.843 346.82 318.531 347.225C318.219 347.63 317.795 347.935 317.311 348.101C316.827 348.267 316.306 348.288 315.81 348.16C315.315 348.033 314.868 347.763 314.525 347.383C314.182 347.004 313.957 346.533 313.88 346.027C313.802 345.522 313.875 345.004 314.088 344.54C314.302 344.075 314.647 343.683 315.081 343.413C315.516 343.143 316.02 343.006 316.531 343.019C317.236 343.062 317.896 343.379 318.371 343.903C318.845 344.427 319.095 345.116 319.067 345.822Z" fill="white"/>
<path d="M327.144 345.847C327.109 346.358 326.925 346.847 326.614 347.254C326.303 347.661 325.88 347.967 325.396 348.136C324.912 348.304 324.39 348.326 323.894 348.2C323.398 348.074 322.949 347.804 322.605 347.426C322.261 347.047 322.035 346.575 321.957 346.069C321.878 345.563 321.95 345.045 322.163 344.58C322.377 344.114 322.722 343.722 323.157 343.451C323.591 343.181 324.096 343.044 324.608 343.057C325.311 343.1 325.969 343.415 326.443 343.936C326.917 344.458 327.168 345.143 327.144 345.847Z" fill="white"/>
<path d="M335.234 345.885C335.199 346.393 335.017 346.88 334.709 347.286C334.401 347.692 333.981 347.999 333.501 348.169C333.021 348.34 332.502 348.366 332.007 348.245C331.513 348.124 331.064 347.861 330.717 347.488C330.369 347.116 330.139 346.65 330.053 346.148C329.967 345.645 330.03 345.129 330.234 344.663C330.438 344.196 330.773 343.799 331.2 343.52C331.626 343.242 332.125 343.094 332.634 343.095C333.349 343.122 334.023 343.43 334.51 343.953C334.998 344.476 335.258 345.171 335.234 345.885Z" fill="white"/>
<path d="M343.311 345.923C343.336 346.281 343.287 346.639 343.167 346.977C343.047 347.315 342.859 347.624 342.615 347.887C342.371 348.149 342.075 348.358 341.746 348.5C341.418 348.643 341.063 348.717 340.705 348.717C340.346 348.717 339.992 348.643 339.663 348.5C339.335 348.358 339.039 348.149 338.795 347.887C338.55 347.624 338.362 347.315 338.243 346.977C338.123 346.639 338.074 346.281 338.099 345.923C338.074 345.566 338.123 345.207 338.243 344.869C338.362 344.531 338.55 344.222 338.795 343.96C339.039 343.698 339.335 343.489 339.663 343.346C339.992 343.203 340.346 343.129 340.705 343.129C341.063 343.129 341.418 343.203 341.746 343.346C342.075 343.489 342.371 343.698 342.615 343.96C342.859 344.222 343.047 344.531 343.167 344.869C343.287 345.207 343.336 345.566 343.311 345.923Z" fill="white"/>
<path d="M351.388 345.961C351.353 346.469 351.171 346.956 350.863 347.362C350.555 347.768 350.136 348.075 349.656 348.245C349.176 348.416 348.656 348.442 348.162 348.321C347.667 348.2 347.218 347.937 346.871 347.564C346.524 347.192 346.293 346.726 346.207 346.224C346.121 345.722 346.184 345.205 346.388 344.739C346.592 344.272 346.928 343.875 347.354 343.596C347.781 343.318 348.279 343.17 348.789 343.172C349.503 343.198 350.177 343.507 350.665 344.029C351.152 344.552 351.412 345.247 351.388 345.961Z" fill="white"/>
<path d="M359.465 345.999C359.43 346.51 359.246 346.999 358.935 347.406C358.624 347.813 358.201 348.12 357.717 348.288C357.234 348.456 356.711 348.478 356.215 348.352C355.719 348.226 355.271 347.957 354.926 347.578C354.582 347.199 354.356 346.727 354.278 346.221C354.199 345.715 354.271 345.198 354.485 344.732C354.698 344.267 355.044 343.874 355.478 343.604C355.913 343.333 356.417 343.196 356.929 343.21C357.632 343.252 358.291 343.568 358.764 344.089C359.238 344.61 359.49 345.295 359.465 345.999Z" fill="white"/>
</g>
<path d="M347.99 162.95C348.871 162.563 349.618 161.924 350.139 161.115C350.66 160.305 350.931 159.361 350.919 158.398C350.952 157.773 350.857 157.147 350.64 156.559C350.423 155.971 350.089 155.434 349.658 154.98C349.227 154.525 348.707 154.163 348.132 153.916C347.556 153.669 346.936 153.541 346.31 153.541C345.683 153.541 345.063 153.669 344.488 153.916C343.912 154.163 343.393 154.525 342.962 154.98C342.53 155.434 342.196 155.971 341.979 156.559C341.763 157.147 341.668 157.773 341.701 158.398C341.681 159.37 341.95 160.326 342.474 161.146C342.998 161.965 343.752 162.611 344.642 163.001C337.542 164.066 337.859 171.776 337.859 171.776L354.647 171.852C354.647 171.852 355.04 164.003 347.99 162.95Z" fill="#B17DDA"/>
<path opacity="0.1" d="M347.99 162.95C348.871 162.563 349.618 161.924 350.139 161.115C350.66 160.305 350.931 159.361 350.919 158.398C350.952 157.773 350.857 157.147 350.64 156.559C350.423 155.971 350.089 155.434 349.658 154.98C349.227 154.525 348.707 154.163 348.132 153.916C347.556 153.669 346.936 153.541 346.31 153.541C345.683 153.541 345.063 153.669 344.488 153.916C343.912 154.163 343.393 154.525 342.962 154.98C342.53 155.434 342.196 155.971 341.979 156.559C341.763 157.147 341.668 157.773 341.701 158.398C341.681 159.37 341.95 160.326 342.474 161.146C342.998 161.965 343.752 162.611 344.642 163.001C337.542 164.066 337.859 171.776 337.859 171.776L354.647 171.852C354.647 171.852 355.04 164.003 347.99 162.95Z" fill="black"/>
<path d="M375.27 176.824L315.434 176.553L315.401 183.704L375.237 183.976L375.27 176.824Z" fill="#B17DDA"/>
<path opacity="0.2" d="M375.27 176.824L315.434 176.553L315.401 183.704L375.237 183.976L375.27 176.824Z" fill="white"/>
<path d="M155.292 213.886H154.696L152.972 214.013C152.039 214.069 151.111 214.192 150.195 214.381C149.602 214.464 149.014 214.578 148.432 214.723L146.467 215.268C143.122 216.295 139.966 217.858 137.122 219.897C133.365 222.624 130.227 226.116 127.916 230.142C126.558 232.463 125.477 234.936 124.695 237.509C123.874 240.306 123.402 243.194 123.288 246.106C123.212 247.636 123.238 249.17 123.364 250.696C123.364 251.47 123.58 252.243 123.681 253.029C123.766 253.822 123.915 254.606 124.125 255.375C125.265 260.463 127.579 265.215 130.881 269.25C134.183 273.286 138.383 276.493 143.145 278.618C146.591 280.105 150.286 280.935 154.037 281.065C157.912 281.278 161.79 280.722 165.449 279.429L166.565 279.011H166.717L166.844 279.087L182.833 287.202L182.364 287.608C180.652 282.308 179.004 277.172 177.406 272.24V272.049L177.546 271.91C181.425 268.003 184.304 263.219 185.94 257.962C187.422 253.156 187.854 248.088 187.208 243.101C186.633 238.669 185.208 234.389 183.011 230.497C181.117 227.154 178.673 224.153 175.783 221.621C173.399 219.617 170.759 217.937 167.934 216.625C165.797 215.703 163.57 215.002 161.29 214.533L158.754 214.115L156.915 213.975L155.799 213.899H155.419C155.546 213.885 155.673 213.885 155.799 213.899H156.928L158.767 213.975L161.303 214.343C163.611 214.778 165.868 215.453 168.036 216.359C170.909 217.655 173.596 219.331 176.024 221.342C178.967 223.863 181.463 226.864 183.404 230.218C185.663 234.152 187.132 238.49 187.728 242.987C188.427 248.051 188.025 253.207 186.548 258.101C184.902 263.467 181.978 268.354 178.028 272.341L178.104 272.011C179.701 276.944 181.362 282.079 183.087 287.367L183.328 288.14L182.605 287.773L166.616 279.67H166.894L165.753 280.089C162.024 281.401 158.074 281.97 154.126 281.762C150.293 281.616 146.522 280.756 143.005 279.226C136.297 276.353 130.716 271.36 127.117 265.012C125.461 262.08 124.252 258.918 123.529 255.629C123.331 254.84 123.183 254.04 123.085 253.232C122.984 252.434 122.819 251.647 122.781 250.861C122.438 246.349 122.914 241.813 124.188 237.471C124.989 234.862 126.1 232.359 127.498 230.015C129.864 225.952 133.067 222.438 136.894 219.706C139.784 217.662 142.993 216.111 146.391 215.116L148.382 214.609C148.968 214.473 149.56 214.367 150.157 214.292C151.082 214.121 152.019 214.019 152.959 213.988L154.696 213.924C154.894 213.898 155.093 213.885 155.292 213.886Z" fill="#B17DDA"/>
<path d="M162.52 243.456H160.174L155.102 236.33V231.651C155.102 231.651 151.475 231.423 151.906 237.547C152.338 243.672 151.906 242.112 151.906 242.112C151.906 242.112 144.21 242.112 143.576 242.809C142.942 243.507 142.904 250.937 142.815 255.084C142.766 256.083 143.053 257.07 143.63 257.888C144.206 258.706 145.04 259.308 145.998 259.598C146.266 259.672 146.543 259.71 146.822 259.712C148.749 259.712 158.551 258.152 158.551 258.152H162.596L162.52 243.456Z" fill="#B17DDA"/>
<path d="M169.228 242.201L167.782 258.228H163.775V242.53L169.228 242.201Z" fill="#B17DDA"/>
<path d="M217.018 568.495V557.654L197.58 557.514L197.415 573.909L198.62 573.998C203.983 574.341 225.907 574.848 229.508 573.732C233.515 572.489 217.018 568.495 217.018 568.495Z" fill="#B17DDA"/>
<path d="M229.965 572.717C229.965 572.895 222.686 573.047 213.722 573.047C204.757 573.047 197.479 572.895 197.479 572.717C197.479 572.54 204.757 572.388 213.722 572.388C222.686 572.388 229.965 572.54 229.965 572.717Z" fill="#263238"/>
<path d="M217.36 570.714C217.196 570.625 217.36 570.055 217.753 569.446C218.147 568.837 218.679 568.584 218.806 568.711C218.933 568.837 218.666 569.319 218.286 569.839C217.906 570.359 217.525 570.803 217.36 570.714Z" fill="#263238"/>
<path d="M218.603 571.424C218.426 571.424 218.515 570.714 218.895 570.042C219.276 569.37 219.783 568.964 219.922 569.066C220.062 569.167 219.833 569.738 219.478 570.334C219.123 570.929 218.768 571.487 218.603 571.424Z" fill="#263238"/>
<path d="M203.337 572.667C203.261 572.667 202.969 572.438 202.551 571.957C202.04 571.337 201.471 570.768 200.851 570.257C200.242 569.771 199.517 569.452 198.747 569.332C198.151 569.256 197.77 569.332 197.732 569.256C197.694 569.18 198.062 568.913 198.759 568.863C199.68 568.843 200.577 569.149 201.295 569.725C201.968 570.273 202.535 570.939 202.969 571.69C203.261 572.248 203.413 572.616 203.337 572.667Z" fill="#263238"/>
<path d="M217.424 568.673C217.512 568.825 217.183 569.205 216.625 569.408C216.067 569.611 215.572 569.535 215.547 569.408C215.522 569.281 215.915 569.015 216.397 568.838C216.878 568.66 217.322 568.521 217.424 568.673Z" fill="#263238"/>
<path d="M217.119 567.62C217.119 567.81 216.612 567.963 215.953 567.975C215.294 567.988 214.774 567.836 214.786 567.658C214.799 567.481 215.319 567.316 215.953 567.303C216.587 567.291 217.094 567.443 217.119 567.62Z" fill="#263238"/>
<path d="M264.885 568.495V557.654L245.447 557.514L245.282 573.745L246.487 573.833C251.85 574.176 273.787 574.848 277.375 573.732C281.382 572.489 264.885 568.495 264.885 568.495Z" fill="#B17DDA"/>
<path d="M277.832 572.743C277.832 572.92 270.566 573.072 261.589 573.072C252.611 573.072 245.358 572.92 245.358 572.743C245.358 572.565 252.624 572.413 261.589 572.413C270.554 572.413 277.832 572.565 277.832 572.743Z" fill="#263238"/>
<path d="M265.228 570.714C265.076 570.625 265.228 570.055 265.621 569.446C266.014 568.837 266.547 568.584 266.674 568.711C266.8 568.837 266.534 569.319 266.154 569.839C265.773 570.359 265.393 570.803 265.228 570.714Z" fill="#263238"/>
<path d="M266.47 571.424C266.306 571.424 266.382 570.714 266.775 570.042C267.168 569.37 267.662 568.964 267.802 569.066C267.941 569.167 267.7 569.738 267.345 570.334C266.99 570.929 266.648 571.487 266.47 571.424Z" fill="#263238"/>
<path d="M251.203 572.667C251.127 572.667 250.848 572.438 250.417 571.957C249.906 571.337 249.337 570.768 248.718 570.257C248.109 569.771 247.383 569.452 246.613 569.332C246.03 569.256 245.636 569.332 245.598 569.256C245.56 569.18 245.928 568.913 246.625 568.863C247.546 568.843 248.444 569.149 249.161 569.725C249.837 570.27 250.405 570.936 250.835 571.69C251.127 572.248 251.279 572.616 251.203 572.667Z" fill="#263238"/>
<path d="M265.291 568.673C265.38 568.825 265.05 569.205 264.492 569.408C263.934 569.611 263.44 569.535 263.414 569.408C263.389 569.281 263.782 569.015 264.264 568.838C264.746 568.66 265.189 568.521 265.291 568.673Z" fill="#263238"/>
<path d="M265.012 567.62C265.012 567.81 264.505 567.963 263.846 567.975C263.186 567.988 262.679 567.836 262.692 567.658C262.704 567.481 263.212 567.316 263.846 567.303C264.48 567.291 265.012 567.443 265.012 567.62Z" fill="#263238"/>
<path d="M336.502 246.55C335.995 246.03 334.739 246.284 334.739 246.284C334.865 245.554 334.865 244.807 334.739 244.077C334.511 243.367 332.913 243.507 332.913 243.507C332.84 242.909 332.84 242.304 332.913 241.706C332.926 241.574 332.898 241.44 332.832 241.325C332.766 241.209 332.666 241.116 332.546 241.059C331.79 240.751 330.978 240.604 330.162 240.628C329.186 239.931 333.142 234.39 334.613 232.615C336.083 230.839 335.817 229.457 334.511 229.457C333.611 229.457 328.995 234.783 327.575 236.571C326.155 238.359 322.389 243.329 322.262 239.36C322.135 235.392 320.538 232.399 319.536 231.892C318.534 231.385 317.469 232.577 318.014 233.68C318.493 234.933 318.792 236.248 318.902 237.585C319.04 238.65 318.993 239.731 318.763 240.781C318.342 242.733 317.77 244.649 317.051 246.512H316.949C316.949 246.512 289.282 273.051 287.278 274.94C285.49 276.64 249.53 272.924 242.315 272.164C239.863 271.805 237.387 271.635 234.91 271.656C231.778 271.796 231.22 272.24 228.101 272.278C220.223 272.365 212.364 273.056 204.592 274.344C201.073 274.943 197.785 276.496 195.089 278.835C192.392 281.174 190.39 284.209 189.3 287.608C182.034 310.305 165.575 364.03 162.672 394.209C160.478 398.188 158.497 402.28 156.737 406.47C154.696 412.024 155.191 412.214 155.875 412.341C157.727 412.683 159.831 402.717 160.618 405.126C161.404 407.535 156.623 417.007 158.563 417.286C161.099 417.641 163.116 407.142 163.356 406.305C163.597 405.468 164.853 405.735 164.624 406.521C164.257 407.637 160.694 419.467 163.179 419.847C164.548 420.05 164.701 417.552 164.701 417.552C164.701 417.552 167.237 406.229 168.39 406.457C169.544 406.686 168.314 413.368 167.731 415.6C167.148 417.831 167.959 418.96 169.151 418.415C169.963 418.034 171.903 411.25 172.435 409.044C172.968 406.838 174.299 400.726 176.087 404.264C177.875 407.801 180.589 409.856 181.704 409.906C181.956 409.877 182.193 409.774 182.385 409.609C182.577 409.444 182.715 409.226 182.782 408.981C182.849 408.737 182.841 408.479 182.76 408.239C182.679 407.999 182.527 407.79 182.326 407.637C181.366 406.699 180.542 405.632 179.878 404.467C179.287 403.559 178.858 402.555 178.61 401.5C178.1 399.396 177.802 397.247 177.723 395.083L177.52 393.815C180.36 379.753 188.539 338.48 200.344 312.118L205.188 322.085L207.293 329.464L194.384 361.329L249.441 360.607L241.224 328.983L251.203 296.015C261.994 296.256 289.7 296.661 294.315 294.569C300.123 292.033 330.162 254.095 330.162 254.095C332.12 252.573 333.995 250.948 335.779 249.225C335.779 249.225 337.605 247.691 336.502 246.55Z" fill="#FFBE9D"/>
<path d="M191.963 337.783C193.56 332.33 201.764 305.372 201.764 305.372C201.764 305.372 205.797 327.347 204.731 329.997C203.752 332.266 202.594 334.453 201.27 336.54C191.963 350.703 193.18 357.792 193.18 357.792L249.416 356.08C249.543 348.218 244.889 329.934 243.925 327.017C242.962 324.101 246.17 314.553 246.17 314.553C246.17 314.553 252.51 308.099 252.281 304.776C252.161 301.792 251.792 298.823 251.178 295.9L285.414 297.168L284.337 273.964L235.163 269.044C233.452 273.875 217.969 271.504 217.969 271.504C201.257 272.062 200.217 275.131 193.269 280.532C186.32 285.934 174.819 332.292 174.819 332.292L191.963 337.783Z" fill="#B17DDA"/>
<path d="M225.209 332.292C224.235 332.466 223.242 332.517 222.255 332.444C220.416 332.444 217.893 332.317 215.116 332.038C212.339 331.759 209.828 331.366 208.04 331.011C207.055 330.884 206.088 330.637 205.162 330.276C206.153 330.276 207.143 330.37 208.117 330.555C209.917 330.783 212.415 331.1 215.179 331.379C217.944 331.658 220.454 331.848 222.267 331.975C223.256 331.988 224.241 332.094 225.209 332.292Z" fill="#263238"/>
<path d="M229.064 327.512C228.09 327.989 227.059 328.343 225.996 328.564C220.937 329.893 215.718 330.512 210.488 330.403C209.406 330.438 208.324 330.336 207.268 330.098C208.336 329.964 209.412 329.908 210.488 329.934C212.479 329.87 215.218 329.731 218.236 329.376C221.254 329.021 223.942 328.513 225.844 328.108C226.9 327.826 227.977 327.626 229.064 327.512Z" fill="#263238"/>
<path d="M247.983 306.184C247.957 307.151 247.825 308.112 247.59 309.05C247.26 310.812 246.753 313.221 246.106 315.859C245.459 318.496 244.838 320.931 244.28 322.579C244.056 323.523 243.724 324.437 243.291 325.305C243.362 324.342 243.54 323.389 243.824 322.465C244.305 320.487 244.851 318.204 245.459 315.707C246.068 313.209 246.651 310.926 247.133 308.948C247.305 307.996 247.59 307.068 247.983 306.184Z" fill="#263238"/>
<path d="M192.558 334.549C189.625 334.096 186.73 333.422 183.898 332.533C181.004 331.856 178.165 330.966 175.402 329.87C178.334 330.33 181.229 331.004 184.063 331.886C186.957 332.56 189.797 333.451 192.558 334.549Z" fill="#263238"/>
<path d="M251.787 295.621C251.309 295.704 250.82 295.704 250.341 295.621C249.017 295.486 247.716 295.174 246.474 294.696C244.4 293.916 242.511 292.712 240.93 291.159C239.349 289.606 238.111 287.74 237.294 285.68C236.391 283.414 236.005 280.975 236.165 278.541C236.222 276.534 236.822 274.579 237.902 272.886C238.662 271.746 239.797 270.907 241.11 270.515C241.461 270.418 241.824 270.371 242.188 270.376C242.442 270.376 242.569 270.376 242.569 270.376C242.569 270.376 242.036 270.376 241.186 270.718C239.982 271.163 238.96 271.997 238.283 273.089C236.558 275.803 236.076 280.76 237.915 285.389C238.771 287.571 240.11 289.53 241.833 291.12C243.245 292.421 244.871 293.467 246.639 294.214C248.298 294.87 250.025 295.342 251.787 295.621Z" fill="#263238"/>
<path d="M281.344 296.712C281.027 292.824 280.925 288.921 281.04 285.021C280.94 281.125 281.059 277.226 281.395 273.343C281.712 277.227 281.814 281.126 281.699 285.021C281.806 288.922 281.687 292.825 281.344 296.712Z" fill="#263238"/>
<path d="M234.834 270.464C234.973 267.637 235.265 264.441 235.265 264.441C235.265 264.441 242.264 263.668 242.683 256.44C243.101 249.213 242.683 232.539 242.683 232.539L230.003 226.046L215.928 237.116L218.096 273.254L231.004 274.078C231.991 274.106 232.948 273.74 233.666 273.063C234.384 272.386 234.804 271.451 234.834 270.464Z" fill="#FFBE9D"/>
<path d="M236.089 250.721C236.089 250.721 236.089 250.861 235.975 251.026C235.881 251.145 235.759 251.24 235.62 251.302C235.48 251.364 235.328 251.391 235.176 251.381C234.365 251.381 233.579 250.443 233.3 249.352C233.167 248.823 233.167 248.27 233.3 247.742C233.326 247.511 233.409 247.29 233.542 247.1C233.675 246.91 233.853 246.755 234.06 246.651C234.231 246.581 234.422 246.581 234.593 246.651C234.719 246.714 234.822 246.816 234.885 246.943C234.973 247.158 234.885 247.298 234.885 247.285C234.885 247.273 234.885 247.158 234.758 247.032C234.692 246.941 234.594 246.878 234.484 246.854C234.374 246.831 234.259 246.849 234.162 246.905C234.006 246.999 233.877 247.131 233.786 247.288C233.695 247.446 233.646 247.623 233.642 247.805C233.535 248.277 233.535 248.766 233.642 249.238C233.896 250.227 234.58 251.026 235.189 251.102C235.308 251.118 235.429 251.109 235.545 251.077C235.66 251.044 235.768 250.988 235.861 250.912C236.013 250.81 236.064 250.709 236.089 250.721Z" fill="#EB996E"/>
<path d="M247.032 228.633C246.056 225.311 242.518 223.662 239.297 222.75C234.39 221.355 229.09 220.746 224.297 222.509C219.504 224.271 213.747 227.365 213.747 232.653C210.919 232.424 209.296 234.897 208.18 237.965C207.467 239.835 207.04 241.801 206.912 243.798C206.557 250.722 204.617 260.282 200.129 265.354C197.593 268.182 194.08 270.135 192.635 273.66C191.367 276.716 192.026 280.342 190.847 283.436C189.794 286.162 187.474 288.102 185.775 290.473C184.044 293.163 183.025 296.249 182.814 299.441C182.604 302.633 183.208 305.826 184.57 308.72C185.943 311.54 187.874 314.051 190.248 316.1C192.622 318.149 195.389 319.694 198.379 320.639C204.302 322.441 210.618 322.503 216.575 320.817C221.045 319.748 225.216 317.68 228.773 314.768C232.412 311.796 234.912 307.657 235.848 303.052C236.749 297.879 235.303 292.616 234.225 287.468C230.852 271.2 231.816 270.35 236.076 255.248C236.178 254.982 236.229 254.703 236.305 254.437C236.381 254.171 236.419 254.044 236.47 253.841C236.591 253.244 236.654 252.637 236.66 252.028C236.037 252.259 235.362 252.308 234.713 252.169C234.064 252.029 233.468 251.708 232.995 251.241C232.522 250.744 232.191 250.128 232.039 249.458C231.888 248.789 231.92 248.09 232.133 247.437C232.432 246.723 232.878 246.08 233.442 245.549C234.005 245.019 234.674 244.612 235.404 244.356C236.812 243.773 238.321 243.469 239.703 242.822C242.632 241.427 244.661 238.536 246.043 235.506C247.179 233.405 247.53 230.969 247.032 228.633Z" fill="#263238"/>
<path d="M236.596 251.064C236.864 251.46 237.085 251.885 237.255 252.332C237.636 253.131 238.143 254.259 238.701 255.565L238.802 255.806H238.536L237.268 255.92C236.393 255.92 235.658 256.085 234.795 256.073C234.72 256.056 234.651 256.02 234.593 255.969C234.536 255.918 234.492 255.853 234.466 255.781C234.428 255.666 234.428 255.541 234.466 255.426C234.495 255.255 234.533 255.086 234.58 254.919L234.808 254.018C234.923 253.418 235.101 252.831 235.341 252.269C235.317 252.881 235.228 253.489 235.074 254.082L234.897 254.982C234.834 255.286 234.719 255.756 234.897 255.718C235.531 255.718 236.431 255.578 237.268 255.527L238.536 255.413L238.371 255.692C237.826 254.424 237.37 253.232 237.103 252.408C236.87 251.987 236.699 251.534 236.596 251.064Z" fill="#B17DDA"/>
<path d="M193.18 357.792L249.416 356.08L273.888 451.611L269.387 561.191H239.652L243.291 453.944L221.545 387.437L224.893 565.439L194.841 565.883L191.684 398.57C191.544 393.917 190.023 383.431 190.593 378.815L193.18 357.792Z" fill="#263238"/>
<path d="M229.026 388.794C228.105 388.852 227.181 388.797 226.274 388.629C224.575 388.426 222.255 388.071 219.706 387.564C217.157 387.057 214.875 386.474 213.226 386.004C212.345 385.811 211.493 385.504 210.69 385.092C210.69 384.901 214.824 385.89 219.896 386.917C224.968 387.945 229.051 388.604 229.026 388.794Z" fill="#455A64"/>
<path d="M269.082 555.181C269.082 555.359 262.349 555.511 254.043 555.511C245.738 555.511 238.992 555.359 238.992 555.181C238.992 555.003 245.725 554.851 254.043 554.851C262.361 554.851 269.082 554.991 269.082 555.181Z" fill="#455A64"/>
<path d="M224.626 560.811C224.626 561.001 218.083 561.141 210.019 561.141C201.954 561.141 195.424 561.001 195.424 560.811C195.424 560.621 201.967 560.481 210.019 560.481C218.07 560.481 224.626 560.633 224.626 560.811Z" fill="#455A64"/>
<path d="M220.746 560.354C220.569 560.354 219.782 521.465 218.984 473.496C218.185 425.528 217.716 386.613 217.881 386.613C218.045 386.613 218.857 425.49 219.643 473.484C220.429 521.478 220.936 560.354 220.746 560.354Z" fill="#455A64"/>
<path d="M265.088 555.181C265.074 555.008 265.074 554.834 265.088 554.661V553.14C265.088 551.77 265.189 549.805 265.265 547.307C265.443 542.235 265.696 534.868 266.013 525.84C266.698 507.682 267.662 482.651 268.714 455.022C268.714 454.755 268.714 454.502 268.714 454.274V454.362C262.057 427.734 256.034 403.566 251.66 386.081L246.588 365.4C246.004 362.978 245.561 361.088 245.244 359.77C245.091 359.148 244.99 358.666 244.901 358.299C244.852 358.134 244.822 357.963 244.812 357.792C244.878 357.951 244.929 358.117 244.965 358.286C245.066 358.641 245.193 359.123 245.37 359.732C245.713 361 246.207 362.927 246.841 365.336C248.109 370.231 249.897 377.281 252.129 385.966C256.541 403.44 262.628 427.544 269.374 454.21V454.299C269.374 454.527 269.374 454.793 269.374 455.047C268.245 482.677 267.218 507.694 266.47 525.852C266.077 534.893 265.747 542.209 265.519 547.307C265.392 549.843 265.291 551.77 265.227 553.14C265.227 553.786 265.151 554.293 265.139 554.661C265.14 554.836 265.123 555.01 265.088 555.181Z" fill="#455A64"/>
<path d="M255.388 452.042C253.252 452.744 251.052 453.233 248.82 453.5C246.081 453.969 243.748 454.299 242.695 454.35V454.096C243.038 454.198 243.215 454.261 243.215 454.312C243.215 454.362 243 454.312 242.645 454.312H241.884L242.645 454.083C243.634 453.792 245.967 453.31 248.706 452.815C250.902 452.339 253.141 452.08 255.388 452.042Z" fill="#455A64"/>
<path d="M254.868 455.681C252.89 455.772 250.908 455.683 248.946 455.415C246.965 455.374 244.992 455.158 243.05 454.768C247.013 454.445 251.002 454.753 254.868 455.681Z" fill="#455A64"/>
<path opacity="0.2" d="M192.938 359.808C193.604 360.663 194.443 361.368 195.4 361.877C196.357 362.386 197.411 362.688 198.492 362.762C200.757 363.03 203.048 362.988 205.301 362.635C219.82 361.025 235.201 359.541 249.415 356.08C231.017 357.107 211.578 356.765 193.179 357.792L192.989 359.364" fill="black"/>
<g opacity="0.2">
<path d="M211.896 385.738L222.268 425.985L221.545 387.437L211.896 385.738Z" fill="black"/>
</g>
</svg>
