<?xml version="1.0" encoding="UTF-8"?><svg id="a" xmlns="http://www.w3.org/2000/svg" xmlns:xlink="http://www.w3.org/1999/xlink" viewBox="0 0 1250 400"><defs><style>.p{fill:url(#l);}.q{fill:url(#c);}.r{fill:url(#m);}.s{fill:url(#f);}.t{fill:url(#g);}.u{fill:url(#b);}.v{fill:url(#i);}.w{fill:url(#h);}.x{fill:#808285;}.y{fill:url(#d);}.a`{fill:url(#e);}.aa{fill:url(#n);}.ab{fill:url(#j);}.ac{fill:url(#o);}.ad{fill:url(#k);}</style><linearGradient id="b" x1="407.79" y1="97.2" x2="407.79" y2="302.37" gradientTransform="matrix(1, 0, 0, 1, 0, 0)" gradientUnits="userSpaceOnUse"><stop offset="0" stop-color="#4b9ad4"/><stop offset=".38" stop-color="#4068b2"/><stop offset="1" stop-color="#292b77"/></linearGradient><linearGradient id="c" x1="355.34" y1="210.72" x2="380.55" y2="126.67" xlink:href="#b"/><linearGradient id="d" x1="603.26" y1="233.45" x2="534.74" y2="162.74" xlink:href="#b"/><linearGradient id="e" x1="259.43" y1="97.2" x2="259.43" y2="302.37" xlink:href="#b"/><linearGradient id="f" x1="312.77" y1="301.21" x2="323" y2="259.91" xlink:href="#b"/><linearGradient id="g" x1="301.81" y1="207.55" x2="301.81" y2="246.96" xlink:href="#b"/><linearGradient id="h" x1="361.83" y1="238.9" x2="361.83" y2="329.51" xlink:href="#b"/><linearGradient id="i" x1="389.03" y1="238.9" x2="389.03" y2="329.51" xlink:href="#b"/><linearGradient id="j" x1="416.23" y1="238.9" x2="416.23" y2="329.51" xlink:href="#b"/><linearGradient id="k" x1="179.11" y1="184.61" x2="179.11" y2="270.08" xlink:href="#b"/><linearGradient id="l" x1="127.5" y1="150.03" x2="127.5" y2="322.94" xlink:href="#b"/><linearGradient id="m" x1="259.43" y1="97.2" x2="259.43" y2="302.37" xlink:href="#b"/><linearGradient id="n" x1="344.92" y1="117.85" x2="247.28" y2="117.85" xlink:href="#b"/><linearGradient id="o" x1="544.01" y1="97.2" x2="544.01" y2="302.37" xlink:href="#b"/></defs><g><polygon class="u" points="418.18 99.78 370.77 99.78 317.6 236.64 356.07 236.64 394.47 137.78 459.51 305.2 497.98 305.2 418.18 99.78"/><path class="q" d="M391.44,129.97c-5.32-13.69-24.32-14.61-30.95-1.5-2.3,4.55-4.61,9.63-6.79,15.24h0l-36.1,92.92h38.47l38.41-98.86,7.17,18.46h0l-10.2-26.27Z"/><path class="y" d="M592.17,305.2h-74.37l-13.85-35.86h88.22c13.49,0,24.46-10.97,24.46-24.46s-10.97-24.46-24.46-24.46h-72.54c-33.26,0-60.32-27.06-60.32-60.32s27.06-60.32,60.32-60.32h109.07v35.86h-109.07c-13.49,0-24.46,10.97-24.46,24.46s10.97,24.46,24.46,24.46h72.54c33.26,0,60.32,27.06,60.32,60.32s-27.06,60.32-60.32,60.32Z"/><rect class="a`" x="241.51" y="117.85" width="35.86" height="187.35"/><path class="s" d="M310.72,254.35l-19.76,50.85h38.47l8.23-21.19c5.55-14.28-4.99-29.66-20.3-29.66h-6.65Z"/><path class="t" d="M413.68,213.44c-1.16-3.27-4.23-5.49-7.7-5.49H188.42v28.69h217.55c3.47,0,6.54-2.21,7.7-5.49,.97-2.74,1.51-5.73,1.51-8.86s-.54-6.11-1.51-8.86Z"/><rect class="w" x="351.96" y="285.46" width="19.74" height="19.74"/><rect class="v" x="379.16" y="266.11" width="19.74" height="39.09"/><rect class="ab" x="406.36" y="250.05" width="19.74" height="55.15"/><rect class="ad" x="166.02" y="194.54" width="26.17" height="55.52"/><path class="p" d="M127.5,293.53c-29.44,0-52.5-31.29-52.5-71.24s23.06-71.24,52.5-71.24,52.5,31.29,52.5,71.24-23.06,71.24-52.5,71.24Zm0-120.96c-16.8,0-30.99,22.77-30.99,49.72s14.19,49.72,30.99,49.72,30.99-22.77,30.99-49.72-14.19-49.72-30.99-49.72Z"/><polygon class="r" points="166.91 99.92 180.9 135.78 337.97 135.78 351.96 99.92 166.91 99.92"/><path class="aa" d="M351.96,99.92h-113.74c21.56,0,39.15,17.37,39.15,35.86h60.6l13.99-35.86Z"/><path class="ac" d="M459.31,160.1c0,33.26,27.06,60.32,60.32,60.32h36.27c-41.18,0-60.73-30.4-60.73-60.32,0-13.49,10.97-24.46,24.46-24.46h109.07v-35.86h-109.07c-33.26,0-60.32,27.06-60.32,60.32Z"/></g><g><path class="x" d="M680.26,97.29h37.12v9.26h-13.46v40.61h-10.26v-40.61h-13.39v-9.26Z"/><path class="x" d="M734.75,97.29v32.91c0,5.56,3.06,9.33,8.91,9.33s8.9-3.78,8.9-9.33v-32.91h10.26v33.48c0,11.75-8.19,18.09-19.16,18.09s-19.09-6.34-19.09-18.09v-33.48h10.19Z"/><path class="x" d="M791.81,97.29c11.83,0,18.66,6.48,18.66,15.96,0,7.05-3.78,12.32-10.54,14.6l13.53,19.3h-12.18l-11.61-18.09h-4.42v18.09h-10.26v-49.87h16.81Zm-6.55,8.83v14.82h5.91c5.27,0,8.69-2.71,8.69-7.41s-3.42-7.41-8.69-7.41h-5.91Z"/><path class="x" d="M866.25,97.29v52.36l-35.33-33.27v30.78h-9.97v-52.36l35.41,33.27v-30.77h9.9Z"/><path class="x" d="M889.33,97.29v20.23l17.74-20.23h12.18l-20.66,23.37,21.65,26.5h-12.4l-18.52-22.58v22.58h-10.54v-49.87h10.54Z"/><path class="x" d="M959.28,97.29v8.69h-21.8v10.47h20.37v8.48h-20.37v13.53h21.8v8.69h-31.77v-49.87h31.77Z"/><path class="x" d="M1010.57,97.29l-17.17,29.21v20.66h-10.47v-20.59l-17.17-29.28h11.75l10.62,20.09,10.68-20.09h11.75Z"/><path class="x" d="M713.74,213.68h-17.1l-5.13,11.26h-11.61l25.29-52.86,25.36,52.86h-11.61l-5.2-11.26Zm-14.68-8.12h12.25l-6.13-14.25-6.13,14.25Z"/><path class="x" d="M759.83,216.1c7.05,0,11.9-2.99,15.25-6.84v11.54c-4.06,3.28-8.41,5.13-15.67,5.13-15.39,0-26.64-10.54-26.64-25.93s11.26-25.93,26.64-25.93c7.27,0,11.61,1.85,15.67,5.13v11.54c-3.35-3.85-8.19-6.84-15.25-6.84-8.55,0-15.96,6.2-15.96,16.1s7.41,16.1,15.96,16.1Z"/><path class="x" d="M811.12,216.1c7.05,0,11.9-2.99,15.24-6.84v11.54c-4.06,3.28-8.41,5.13-15.67,5.13-15.39,0-26.64-10.54-26.64-25.93s11.26-25.93,26.64-25.93c7.27,0,11.61,1.85,15.67,5.13v11.54c-3.35-3.85-8.19-6.84-15.24-6.84-8.55,0-15.96,6.2-15.96,16.1s7.41,16.1,15.96,16.1Z"/><path class="x" d="M861.69,174.07c15.1,0,26.36,10.83,26.36,25.93s-11.04,26.22-26.36,26.22-26.36-11.11-26.36-26.22,11.4-25.93,26.36-25.93Zm0,42.32c9.19,0,15.53-6.84,15.53-16.39s-6.13-16.39-15.53-16.39-15.53,6.84-15.53,16.39,6.34,16.39,15.53,16.39Z"/><path class="x" d="M907.56,175.07v32.91c0,5.56,3.06,9.33,8.9,9.33s8.91-3.78,8.91-9.33v-32.91h10.26v33.48c0,11.75-8.19,18.09-19.16,18.09s-19.09-6.34-19.09-18.09v-33.48h10.19Z"/><path class="x" d="M993.12,175.07v52.36l-35.33-33.27v30.78h-9.97v-52.36l35.41,33.27v-30.77h9.9Z"/><path class="x" d="M1000.66,175.07h37.12v9.26h-13.46v40.61h-10.26v-40.61h-13.39v-9.26Z"/><path class="x" d="M1055.73,175.07v49.87h-10.4v-49.87h10.4Z"/><path class="x" d="M1113.57,175.07v52.36l-35.33-33.27v30.78h-9.97v-52.36l35.41,33.27v-30.77h9.9Z"/><path class="x" d="M1150.33,198.29h24.65c.57,15.25-8.55,27.93-25.07,27.93-15.53,0-26.64-10.69-26.64-26.22s11.4-25.93,26.93-25.93c10.12,0,17.46,4.49,22.01,11.4l-8.76,5.13c-2.56-4.28-6.84-7.41-13.25-7.41-8.98,0-16.24,6.41-16.24,16.81s6.98,17.1,16.24,17.1c8.12,0,12.75-4.7,14.39-10.69h-14.25v-8.12Z"/><path class="x" d="M702.2,295.16c4.13,0,6.84-2.28,6.84-5.84,0-4.56-3.56-6.13-10.26-8.69-4.99-1.85-13.32-5.41-13.32-14.96,0-8.41,7.2-13.82,16.53-13.82s15.03,5.56,17.6,10.69l-7.98,4.56c-2.14-3.56-5.2-6.48-9.62-6.48-3.99,0-5.98,2.14-5.98,4.63,0,3.7,3.7,5.77,11.18,8.33,6.48,2.28,12.68,6.77,12.68,15.17,0,9.69-8.55,15.25-17.52,15.25s-16.81-5.7-20.09-12.82l7.41-5.27c3.13,5.56,7.2,9.26,12.54,9.26Z"/><path class="x" d="M753.34,251.84c15.1,0,26.36,10.83,26.36,25.93s-11.04,26.22-26.36,26.22-26.36-11.11-26.36-26.22,11.4-25.93,26.36-25.93Zm0,42.32c9.19,0,15.53-6.84,15.53-16.39s-6.13-16.39-15.53-16.39-15.53,6.84-15.53,16.39,6.34,16.39,15.53,16.39Z"/><path class="x" d="M799.65,252.84v40.89h19.88v8.98h-30.13v-49.87h10.26Z"/><path class="x" d="M836.9,252.84v32.91c0,5.56,3.06,9.33,8.9,9.33s8.91-3.78,8.91-9.33v-32.91h10.26v33.48c0,11.75-8.19,18.09-19.16,18.09s-19.09-6.34-19.09-18.09v-33.48h10.19Z"/><path class="x" d="M872.16,252.84h37.12v9.26h-13.46v40.61h-10.26v-40.61h-13.39v-9.26Z"/><path class="x" d="M927.22,252.84v49.87h-10.4v-49.87h10.4Z"/><path class="x" d="M963.27,251.84c15.1,0,26.36,10.83,26.36,25.93s-11.04,26.22-26.36,26.22-26.36-11.11-26.36-26.22,11.4-25.93,26.36-25.93Zm0,42.32c9.19,0,15.53-6.84,15.53-16.39s-6.13-16.39-15.53-16.39-15.53,6.84-15.53,16.39,6.34,16.39,15.53,16.39Z"/><path class="x" d="M1044.62,252.84v52.36l-35.33-33.27v30.78h-9.97v-52.36l35.41,33.27v-30.77h9.9Z"/><path class="x" d="M1074.11,295.16c4.13,0,6.84-2.28,6.84-5.84,0-4.56-3.56-6.13-10.26-8.69-4.99-1.85-13.32-5.41-13.32-14.96,0-8.41,7.2-13.82,16.53-13.82s15.03,5.56,17.6,10.69l-7.98,4.56c-2.14-3.56-5.2-6.48-9.62-6.48-3.99,0-5.98,2.14-5.98,4.63,0,3.7,3.71,5.77,11.18,8.33,6.48,2.28,12.68,6.77,12.68,15.17,0,9.69-8.55,15.25-17.52,15.25s-16.81-5.7-20.09-12.82l7.41-5.27c3.13,5.56,7.2,9.26,12.54,9.26Z"/></g></svg>