<svg width="60" height="60" viewBox="0 0 20 20" fill="none" xmlns="http://www.w3.org/2000/svg">
<g clip-path="url(#clip0_5252_41062)">
<path d="M10 20C7.34784 20 4.8043 18.9464 2.92893 17.0711C1.05357 15.1957 0 12.6522 0 10C0 7.34784 1.05357 4.8043 2.92893 2.92893C4.8043 1.05357 7.34784 0 10 0C12.6522 0 15.1957 1.05357 17.0711 2.92893C18.9464 4.8043 20 7.34784 20 10C20 12.6522 18.9464 15.1957 17.0711 17.0711C15.1957 18.9464 12.6522 20 10 20ZM7 6V8C7 8.79565 7.31607 9.55871 7.87868 10.1213C8.44129 10.6839 9.20435 11 10 11C10.7956 11 11.5587 10.6839 12.1213 10.1213C12.6839 9.55871 13 8.79565 13 8V6C13 5.20435 12.6839 4.44129 12.1213 3.87868C11.5587 3.31607 10.7956 3 10 3C9.20435 3 8.44129 3.31607 7.87868 3.87868C7.31607 4.44129 7 5.20435 7 6V6ZM3.35 14.44C4.08105 15.5332 5.07031 16.4292 6.23022 17.0489C7.39013 17.6686 8.68493 17.9928 10 17.9928C11.3151 17.9928 12.6099 17.6686 13.7698 17.0489C14.9297 16.4292 15.919 15.5332 16.65 14.44C14.5638 13.4824 12.2955 12.9866 10 12.9866C7.70454 12.9866 5.43616 13.4824 3.35 14.44V14.44Z" fill="black"/>
</g>
<defs>
<clipPath id="clip0_5252_41062">
<rect width="20" height="20" fill="white"/>
</clipPath>
</defs>
</svg>
